<?xml version="1.0" encoding="UTF-8"?>
<svg width="20px" height="20px" viewBox="0 0 20 20" version="1.1" xmlns="http://www.w3.org/2000/svg" xmlns:xlink="http://www.w3.org/1999/xlink">
    <!-- Generator: Sketch 52.6 (67491) - http://www.bohemiancoding.com/sketch -->
    <title>block-icon</title>
    <desc>Created with Sketch.</desc>
    <defs>
        <path d="M3.7288037,1.97182354 L3.7288037,18.0281765 C3.7288037,18.183749 3.85780567,18.3098655 4.01693766,18.3098655 L16.9830623,18.3098655 C17.1421943,18.3098655 17.2711963,18.183749 17.2711963,18.0281765 L17.2711963,5.54234564 C17.2711963,5.388171 17.1462131,5.26318776 16.9920384,5.26318776 C16.9915789,5.26318776 16.9911193,5.2631889 16.9906597,5.26319116 L13.8100927,5.2788992 C13.5017472,5.28042204 13.2505493,5.03169312 13.2490264,4.7233476 C13.2490219,4.72242849 13.2490196,4.72150937 13.2490196,4.72059025 L13.2490196,1.96929234 C13.2490196,1.81511771 13.1240364,1.69013447 12.9698617,1.69013447 L4.01693766,1.69013447 C3.85780567,1.69013447 3.7288037,1.81625096 3.7288037,1.97182354 Z M13.2490196,2.81013802e-13 C14.0056084,3.13038142e-13 14.7372398,0.264594236 15.311685,0.745962128 L17.8931919,2.90918794 C18.5956931,3.49786295 19,4.35725281 19,5.26180566 L19,18.0281765 C19,19.1171845 18.0969863,20 16.9830623,20 L4.01693766,20 C2.90301375,20 2,19.1171845 2,18.0281765 L2,1.97182354 C2,0.882815471 2.90301375,5.68434189e-14 4.01693766,5.68434189e-14 L13.2490196,2.81013802e-13 Z M8.028916,9.53291102 C8.12053137,9.72275147 8.16633837,9.93408013 8.16633837,10.1669033 C8.16633837,10.3997265 8.12053137,10.6101597 8.028916,10.7982092 C7.93730062,10.9862587 7.8192595,11.1358006 7.6747891,11.2468394 C7.38232463,11.4760807 7.0792937,11.5906996 6.76568722,11.5906996 L6.10500272,11.5906996 L6.10500272,12.1978278 C6.10500272,12.2802114 6.10236001,12.3419982 6.0970745,12.38319 C6.091789,12.4243818 6.07505183,12.4718412 6.04686248,12.5255696 C5.99753113,12.6222808 5.86011012,12.6706357 5.63459535,12.6706357 C5.38793857,12.6706357 5.24347034,12.6043716 5.20118632,12.4718415 C5.18004431,12.4109493 5.16947346,12.3178214 5.16947346,12.192455 L5.16947346,9.21054205 C5.16947346,9.12815845 5.17211617,9.06637168 5.17740167,9.02517989 C5.18268718,8.98398809 5.19942435,8.93652869 5.2276137,8.88280026 C5.27694505,8.78608908 5.41436605,8.73773422 5.63988083,8.73773422 L6.7709727,8.73773422 C7.08105551,8.73773422 7.38232463,8.85235315 7.6747891,9.08159446 C7.8192595,9.19263321 7.93730062,9.34307056 8.028916,9.53291102 Z M6.7709727,10.6397112 C6.87668275,10.6397112 6.9806294,10.6003109 7.08281578,10.5215092 C7.18500217,10.4427075 7.23609459,10.3245067 7.23609459,10.1669033 C7.23609459,10.0092999 7.18500217,9.8902037 7.08281578,9.80961105 C6.9806294,9.72901841 6.87492094,9.68872269 6.76568722,9.68872269 L6.10500272,9.68872269 L6.10500272,10.6397112 L6.7709727,10.6397112 Z M9.26843563,8.7323614 L10.2462487,8.73773422 C10.7571806,8.73773422 11.2064416,8.92488545 11.5940451,9.29919351 C11.9816486,9.67350158 12.1754475,10.1337682 12.1754475,10.6800073 C12.1754475,11.2262463 11.9860531,11.6945721 11.6072588,12.0849987 C11.2284644,12.4754253 10.7695135,12.6706357 10.2303923,12.6706357 L9.26315016,12.6706357 C9.04820639,12.6706357 8.914309,12.6258627 8.86145398,12.5363153 C8.81916996,12.4610955 8.79802827,12.3464765 8.79802827,12.192455 L8.79802827,9.20516923 C8.79802827,9.11920374 8.80067098,9.05652151 8.80595648,9.01712066 C8.81124198,8.97771981 8.82797916,8.93115587 8.8561685,8.87742744 C8.90549986,8.78071627 9.04292086,8.7323614 9.26843563,8.7323614 Z M10.2462487,11.7196472 C10.4999528,11.7196472 10.7289878,11.6238329 10.9333606,11.4322015 C11.1377333,11.2405701 11.2399182,10.9996913 11.2399182,10.7095578 C11.2399182,10.4194242 11.1403761,10.1767545 10.9412888,9.98154117 C10.7422015,9.78632787 10.508762,9.68872269 10.2409632,9.68872269 L9.73355752,9.68872269 L9.73355752,11.7196472 L10.2462487,11.7196472 Z M15.3705932,8.73773422 C15.4516376,8.73773422 15.51242,8.7404206 15.5529421,8.74579344 C15.5934643,8.75116629 15.6392713,8.76818004 15.6903645,8.7968352 C15.7414577,8.82549036 15.7775748,8.87384522 15.7987168,8.94190124 C15.8198588,9.00995725 15.8304296,9.10129421 15.8304296,9.21591486 C15.8304296,9.33053551 15.8198588,9.42187248 15.7987168,9.48992849 C15.7775748,9.5579845 15.7405768,9.6054439 15.6877218,9.63230812 C15.6348668,9.65917233 15.5881789,9.67529062 15.5476567,9.68066346 C15.5071345,9.68603631 15.4445903,9.68872269 15.3600223,9.68872269 L13.7426666,9.68872269 L13.7426666,10.2313771 L14.7839054,10.2313771 C14.8684734,10.2313771 14.9310176,10.2340635 14.9715398,10.2394363 C15.012062,10.2448092 15.0587499,10.2618229 15.1116049,10.2904781 C15.2032203,10.3442065 15.2490273,10.4856893 15.2490273,10.7149306 C15.2490273,10.9656633 15.1820786,11.1143097 15.0481792,11.1608743 C14.9918005,11.1787838 14.9019483,11.1877384 14.7786199,11.1877384 L13.7426666,11.1877384 L13.7426666,12.2032007 C13.7426666,12.2891662 13.7400239,12.3518484 13.7347384,12.3912492 C13.7294529,12.4306501 13.7127157,12.477214 13.6845264,12.5309425 C13.635195,12.6276536 13.497774,12.6760085 13.2722592,12.6760085 C13.0256025,12.6760085 12.8811342,12.6079535 12.8388502,12.4718415 C12.8177082,12.4145311 12.8071373,12.3231942 12.8071373,12.1978278 L12.8071373,9.21054205 C12.8071373,9.02786538 12.8406117,8.90339638 12.9075614,8.83713132 C12.9745111,8.77086626 13.1013612,8.73773422 13.2881157,8.73773422 L15.3705932,8.73773422 Z" id="path-1"></path>
    </defs>
    <g id="block-icon" stroke="none" stroke-width="1" fill="none" fill-rule="evenodd">
        <mask id="mask-2" fill="white">
            <use xlink:href="#path-1"></use>
        </mask>
        <use id="Combined-Shape" fill="#555D66" fill-rule="nonzero" xlink:href="#path-1"></use>
    </g>
</svg>