<?xml version="1.0" encoding="UTF-8"?>
<svg width="18px" height="18px" viewBox="0 0 18 18" version="1.1" xmlns="http://www.w3.org/2000/svg" xmlns:xlink="http://www.w3.org/1999/xlink">
    <!-- Generator: Sketch 52.6 (67491) - http://www.bohemiancoding.com/sketch -->
    <title>menu-icon</title>
    <desc>Created with Sketch.</desc>
    <defs>
        <path d="M3.52541503,1.77464119 L3.52541503,16.2253588 C3.52541503,16.3653741 3.6392403,16.478879 3.77965087,16.478879 L15.2203491,16.478879 C15.3607597,16.478879 15.474585,16.3653741 15.474585,16.2253588 L15.474585,4.98813602 C15.474585,4.84937884 15.3621001,4.73689392 15.2233429,4.73689392 C15.222921,4.73689392 15.2224991,4.73689499 15.2220773,4.73689711 L12.430621,4.75095915 C12.1531101,4.75235712 11.9270099,4.52852342 11.9256119,4.25101259 C11.9256077,4.25016885 11.9256055,4.2493251 11.9256055,4.24848135 L11.9256055,1.77236311 C11.9256055,1.63360593 11.8131206,1.52112102 11.6743634,1.52112102 L3.77965087,1.52112102 C3.6392403,1.52112102 3.52541503,1.63462587 3.52541503,1.77464119 Z M11.9256055,2.58596764e-13 C12.5931839,2.8741867e-13 13.238741,0.238134812 13.7456044,0.671365915 L16.0234046,2.61826914 C16.6432586,3.14807666 17,3.92152753 17,4.7356251 L17,16.2253588 C17,17.2054661 16.2032232,18 15.2203491,18 L3.77965087,18 C2.79677684,18 2,17.2054661 2,16.2253588 L2,1.77464119 C2,0.794533924 2.79677684,5.68434189e-14 3.77965087,5.68434189e-14 L11.9256055,2.58596764e-13 Z M7.31963176,8.57961992 C7.40046886,8.75047632 7.4408868,8.94067212 7.4408868,9.15021299 C7.4408868,9.35975387 7.40046886,9.54914375 7.31963176,9.71838831 C7.23879466,9.88763286 7.13464074,10.0222206 7.00716685,10.1221554 C6.74910997,10.3284726 6.48172974,10.4316297 6.20501814,10.4316297 L5.62206122,10.4316297 L5.62206122,10.9780451 C5.62206122,11.0521903 5.61972942,11.1077984 5.61506574,11.144871 C5.61040206,11.1819436 5.59563397,11.2246571 5.57076101,11.2730127 C5.52723335,11.3600527 5.40597952,11.4035721 5.2069959,11.4035721 C4.98935756,11.4035721 4.86188559,11.3439344 4.82457616,11.2246573 C4.80592145,11.1698543 4.79659423,11.0860392 4.79659423,10.9732095 L4.79659423,8.28948784 C4.79659423,8.21534261 4.79892603,8.15973452 4.80358971,8.1226619 C4.80825339,8.08558928 4.82302148,8.04287582 4.84789444,7.99452023 C4.8914221,7.90748017 5.01267593,7.8639608 5.21165955,7.8639608 L6.20968179,7.8639608 C6.48328427,7.8639608 6.74910997,7.96711784 7.00716685,8.17343501 C7.13464074,8.27336989 7.23879466,8.40876351 7.31963176,8.57961992 Z M6.20968179,9.57574004 C6.30295537,9.57574004 6.394673,9.54027981 6.48483746,9.46935828 C6.57500191,9.39843675 6.62008346,9.29205605 6.62008346,9.150213 C6.62008346,9.00836994 6.57500191,8.90118333 6.48483746,8.82864995 C6.394673,8.75611656 6.30140083,8.71985042 6.20501814,8.71985042 L5.62206122,8.71985042 L5.62206122,9.57574004 L6.20968179,9.57574004 Z M8.41332556,7.85912526 L9.27610179,7.8639608 C9.72692406,7.8639608 10.1233308,8.0323969 10.4653339,8.36927416 C10.807337,8.70615142 10.978336,9.12039141 10.978336,9.61200655 C10.978336,10.1036217 10.8112233,10.5251149 10.476993,10.8764988 C10.1427627,11.2278828 9.73780605,11.4035721 9.26211083,11.4035721 L8.4086619,11.4035721 C8.21900564,11.4035721 8.10086088,11.3632764 8.0542241,11.2826837 C8.01691467,11.2149859 7.99826023,11.1118289 7.99826023,10.9732095 L7.99826023,8.28465231 C7.99826023,8.20728337 8.00059204,8.15086936 8.00525572,8.1154086 C8.0099194,8.07994783 8.02468749,8.03804028 8.04956044,7.9896847 C8.09308811,7.90264464 8.21434194,7.85912526 8.41332556,7.85912526 Z M9.27610179,10.5476825 C9.49995837,10.5476825 9.70204808,10.4614496 9.88237699,10.2889814 C10.0627059,10.1165131 10.152869,9.89972216 10.152869,9.63860199 C10.152869,9.37748181 10.0650377,9.15907902 9.88937247,8.98338705 C9.71370724,8.80769508 9.50773119,8.71985042 9.27143814,8.71985042 L8.82372723,8.71985042 L8.82372723,10.5476825 L9.27610179,10.5476825 Z M13.7975823,7.8639608 C13.869092,7.8639608 13.9227235,7.86637854 13.9584784,7.8712141 C13.9942332,7.87604966 14.0346512,7.89136203 14.0797334,7.91715168 C14.1248156,7.94294133 14.1566836,7.9864607 14.1753383,8.04771111 C14.1939931,8.10896152 14.2033203,8.19116479 14.2033203,8.29432338 C14.2033203,8.39748196 14.1939931,8.47968523 14.1753383,8.54093564 C14.1566836,8.60218605 14.1240384,8.64489951 14.0774016,8.6690773 C14.0307648,8.6932551 13.9895696,8.70776156 13.9538147,8.71259712 C13.9180598,8.71743267 13.8628738,8.71985042 13.7882549,8.71985042 L12.3611764,8.71985042 L12.3611764,9.20823941 L13.2799165,9.20823941 C13.3545354,9.20823941 13.4097214,9.21065715 13.4454763,9.21549271 C13.4812311,9.22032827 13.5224264,9.23564064 13.5690631,9.26143029 C13.6499002,9.30978588 13.6903182,9.43712035 13.6903182,9.64343752 C13.6903182,9.86909693 13.6312458,10.0028787 13.5130993,10.0447869 C13.4633534,10.0609054 13.384072,10.0689646 13.2752529,10.0689646 L12.3611764,10.0689646 L12.3611764,10.9828806 C12.3611764,11.0602495 12.3588446,11.1166635 12.3541809,11.1521243 C12.3495173,11.1875851 12.3347492,11.2294926 12.3098762,11.2778482 C12.2663485,11.3648883 12.1450947,11.4084076 11.9461111,11.4084076 C11.7284728,11.4084076 11.6010008,11.3471581 11.5636914,11.2246573 C11.5450366,11.173078 11.5357094,11.0908748 11.5357094,10.9780451 L11.5357094,8.28948784 C11.5357094,8.12507884 11.5652456,8.01305675 11.6243189,7.95341819 C11.6833921,7.89377963 11.7953187,7.8639608 11.9601021,7.8639608 L13.7975823,7.8639608 Z" id="path-1"></path>
    </defs>
    <g id="menu-icon" stroke="none" stroke-width="1" fill="none" fill-rule="evenodd">
        <mask id="mask-2" fill="white">
            <use xlink:href="#path-1"></use>
        </mask>
        <use id="Combined-Shape" fill="#FFFFFF" fill-rule="nonzero" xlink:href="#path-1"></use>
    </g>
</svg>